<svg id="Layer_1" data-name="Layer 1" xmlns="http://www.w3.org/2000/svg" viewBox="0 0 179 67"><defs><style>.cls-1{fill:#a5182a;}.cls-2{fill:#1e1e1c;}.cls-3{fill:#91172a;}</style></defs><path class="cls-1" d="M91.1,19.6h0c-.49-1.28-1.24-3.31-1.58-4.19-.1-.3-.2-.6-.27-.89-.13-.47-.24-.95-.34-1.42s-.17-.88-.22-1.32-.05-.85-.06-1.27,0-1,0-1.46a1.77,1.77,0,0,1,.08-.69.75.75,0,0,0,.56-.78l-.12-1.43,0-.31c0-.06,0-.11,0-.16L89,4.22a1,1,0,0,0-.79-.9l-.15,0a5.16,5.16,0,0,0-2.47,0l-.15,0a1,1,0,0,0-.79.9l-.12,1.46a.78.78,0,0,0,0,.16c0,.1,0,.21,0,.31l-.13,1.43a.75.75,0,0,0,.57.78,2,2,0,0,1,.07.69c0,.49,0,1,0,1.46s0,.84-.06,1.27-.14.88-.23,1.32-.21,1-.33,1.42c-.08.29-.18.59-.27.89-.35.88-1.1,2.91-1.59,4.19h0a13.46,13.46,0,0,0-1.06,5.7h0c0,2,.28,17,.28,17l5.1,1.95h0l5.09-1.95s.25-15,.28-17h0a13.45,13.45,0,0,0-1.05-5.7"/><path class="cls-1" d="M23.45,59.45a1.27,1.27,0,0,1-1.28,1.29,1.3,1.3,0,0,1-1.29-1.29V51.56H18.69v8.37c0,1.72,1.56,2.94,3.48,2.94a3.21,3.21,0,0,0,3.48-2.94V51.56h-2.2Z"/><polygon class="cls-1" points="50.61 62.72 57.58 62.72 57.58 60.94 52.81 60.94 52.81 58.02 55.99 58.02 55.99 56.23 52.81 56.23 52.81 53.31 57.58 53.31 57.58 51.53 50.61 51.53 50.61 62.72"/><polygon class="cls-1" points="91.12 51.52 89.05 51.53 86.88 54.7 84.67 51.53 82.6 51.53 82.6 62.72 84.79 62.72 84.79 55.94 86.87 58.38 88.95 55.95 88.95 62.72 91.15 62.72 91.15 51.84 91.12 51.53 91.12 51.52"/><path class="cls-1" d="M103.35,51.51,100,62.73h2.23l.45-1.5,3-1.3.84,2.8h2.23L105.4,51.51Zm0,7.39,1-3.37.78,2.61Z"/><polygon class="cls-1" points="139.02 51.53 135.56 55.93 135.53 51.53 133.33 51.53 133.33 62.72 135.53 62.72 135.56 58.75 136.4 57.63 139.15 62.72 141.56 62.72 137.88 55.93 141.71 51.53 139.02 51.53"/><polygon class="cls-1" points="150.89 62.72 157.86 62.72 157.86 60.94 153.09 60.94 153.09 58.02 156.27 58.02 156.27 56.23 153.09 56.23 153.09 53.31 157.86 53.31 157.86 51.53 150.89 51.53 150.89 62.72"/><polygon class="cls-2" points="157.84 3.09 150.64 3.09 141.63 13.44 138.49 17.04 138.49 3.09 132.44 3.09 132.44 43.41 138.49 43.41 138.49 30.94 138.49 25.33 140.37 23.17 151.32 43.41 157.84 43.41 144.39 18.55 157.84 3.09"/><path class="cls-2" d="M30.44,3H18.62V43.33H30.44A11.83,11.83,0,0,0,42.27,31.5V14.8A11.83,11.83,0,0,0,30.44,3m5.92,28.53a5.92,5.92,0,0,1-5.92,5.91H24.53V8.89h5.91a5.92,5.92,0,0,1,5.92,5.91Z"/><polygon class="cls-1" points="173.5 53.4 173.5 51.51 164.6 51.51 164.6 53.4 167.93 53.4 167.93 62.72 170.18 62.72 170.18 53.4 173.5 53.4"/><polygon class="cls-2" points="118.24 3.09 118.24 17.04 115.1 13.44 106.1 3.09 106.06 3.09 100.06 3.09 100.06 42.27 106.06 43.4 106.06 11.32 118.24 25.33 118.24 30.94 118.24 43.41 124.3 43.41 124.3 3.09 118.24 3.09"/><path class="cls-2" d="M69.27,31.28,66.7,26.52s3.88-3,4.37-3.54a11.24,11.24,0,0,0,3-7.73L74,13.5A11.8,11.8,0,0,0,62.23,2.94H50.4V43.37h6.06V32.21l2-1.13h0l3.24-1.79,1.91,3.53,5.42,10,.29.53,5.93-1.1ZM56.32,25.46V8.85H62.4A6,6,0,0,1,63.45,9a5.93,5.93,0,0,1,4.69,5.78v.48a5.91,5.91,0,0,1-2.62,4.91h0c-1.94,1.82-9.2,5.31-9.2,5.31"/><path class="cls-1" d="M122.78,58.19a2,2,0,0,0,.25-.14l.09-.06.14-.1.17-.12c1.26-1.05,1.19-3.43.47-4.77a3.39,3.39,0,0,0-3-1.47h-3.49V62.77h2V59.65l1-.44.41-.19,2,3.7h2.4s-2.47-4.52-2.47-4.53m-3.37-.55V53.25h1.37a1.71,1.71,0,0,1,1.09.24,1.54,1.54,0,0,1,.5.71,2.9,2.9,0,0,1,.06,1.7v0a1.51,1.51,0,0,1-.9.81c-.64.31-1.38.59-2.12.9"/><path class="cls-1" d="M72,58.15l.26-.14.09-.06.14-.1.17-.13c1.25-1,1.19-3.42.46-4.76a3.37,3.37,0,0,0-3-1.48H66.57V62.73h2V59.61l1-.45L70,59l2,3.7h2.41L72,58.15m-3.36-.55V53.2l1.36,0a1.68,1.68,0,0,1,1.1.24,1.49,1.49,0,0,1,.5.71,2.9,2.9,0,0,1,.06,1.7h0c-.11.4-.55.65-.9.82-.64.3-1.39.59-2.12.9"/><path class="cls-1" d="M40.33,58.53a2.7,2.7,0,0,0,1.59-2,5,5,0,0,0-.41-3.46,3.56,3.56,0,0,0-3.2-1.55H34.65V62.77h2.14V60.19c.67-.3,3.13-1.48,3.54-1.66M36.79,58V53.34h1.44a1.79,1.79,0,0,1,1.15.26,1.5,1.5,0,0,1,.52.74A3.12,3.12,0,0,1,40,56.14h0c-.11.42-.57.69-.94.86-.67.32-1.46.63-2.23.94"/><path class="cls-3" d="M85.55,3.28l-.15,0a1,1,0,0,0-.79.9l-.12,1.46a.78.78,0,0,0,0,.16l0,.31-.12,1.43a.75.75,0,0,0,.57.78,2,2,0,0,1,.07.69c0,.49,0,1,0,1.46s0,.85-.06,1.27-.14.88-.23,1.32-.21,1-.33,1.42c-.08.29-.18.59-.27.89-.35.88-1.1,2.91-1.59,4.19h0a13.46,13.46,0,0,0-1.06,5.7h0c0,2,.28,17,.28,17l5.1,1.95h0V3.13a5.13,5.13,0,0,0-1.24.15"/><path class="cls-1" d="M92.16,25.3h0a13.3,13.3,0,0,0-1.05-5.7h0c-.49-1.28-1.24-3.31-1.58-4.19-.1-.3-.2-.6-.27-.89-.13-.47-.24-.95-.34-1.42s-.17-.88-.22-1.32a10.9,10.9,0,0,1-.06-1.27c0-.49,0-1,0-1.46a1.77,1.77,0,0,1,.08-.69.75.75,0,0,0,.56-.78l-.12-1.43,0-.32a.77.77,0,0,0,0-.15L89,4.22a1,1,0,0,0-.79-.9l-.15,0a5.11,5.11,0,0,0-1.23-.15V44.22l5.09-1.95s.25-15,.28-17"/><path class="cls-1" d="M11.89,55.12l0-.87a2.94,2.94,0,0,0-3.3-2.69,2.61,2.61,0,0,0-2.35,1.23,2.76,2.76,0,0,0-.43,1.64,5.12,5.12,0,0,0,1.73,2.89c.63.69,1.3,1.36,1.91,2.08A1,1,0,0,1,9.25,61a1.14,1.14,0,0,1-1.72-.85l0-.75-2,0,0,.87A2.94,2.94,0,0,0,8.82,63a3.35,3.35,0,0,0,2.66-1.4C13.22,59,9,56.94,8,54.85a.93.93,0,0,1,.24-1.21,1.06,1.06,0,0,1,1.67.77l0,.75Z"/></svg>